<svg width="675" height="511" viewBox="0 0 675 511" fill="none" xmlns="http://www.w3.org/2000/svg">
<g filter="url(#filter0_d)">
<path fill-rule="evenodd" clip-rule="evenodd" d="M624.87 433.336L625.401 433.336C625.552 433.343 625.7 433.29 625.812 433.188C625.924 433.087 625.992 432.945 626 432.794L626 405.909C625.992 405.758 625.924 405.617 625.812 405.515C625.7 405.414 625.552 405.361 625.401 405.368L624.899 405.368L624.899 78.0079C624.899 58.376 611.353 47 593.909 47L79.9917 47.0096C62.5472 47.0096 49 58.3856 49 78.0172L49 431.774C49 451.403 62.5472 462.78 79.9917 462.78L528.232 462.773L528.232 463.396C528.225 463.548 528.278 463.697 528.38 463.81C528.482 463.923 528.625 463.992 528.777 464L550.95 464C551.103 463.992 551.245 463.924 551.347 463.81C551.45 463.697 551.503 463.548 551.495 463.396L551.495 462.772L556.199 462.772L556.199 463.396C556.191 463.548 556.245 463.697 556.347 463.81C556.449 463.923 556.591 463.992 556.744 464L578.917 464C579.069 463.992 579.212 463.924 579.314 463.81C579.416 463.697 579.469 463.548 579.462 463.396L579.462 462.772L593.909 462.771C610.881 462.771 624.164 452.001 624.87 433.336ZM84 68C75.1635 68 68 75.1634 68 84L68 427C68 435.837 75.1634 443 84 443L589 443C597.837 443 605 435.837 605 427L605 84C605 75.1634 597.837 68 589 68L84 68Z" fill="#151515"/>
</g>
<defs>
<filter id="filter0_d" x="29" y="32" width="637" height="477" filterUnits="userSpaceOnUse" color-interpolation-filters="sRGB">
<feFlood flood-opacity="0" result="BackgroundImageFix"/>
<feColorMatrix in="SourceAlpha" type="matrix" values="0 0 0 0 0 0 0 0 0 0 0 0 0 0 0 0 0 0 127 0"/>
<feOffset dx="10" dy="15"/>
<feGaussianBlur stdDeviation="15"/>
<feColorMatrix type="matrix" values="0 0 0 0 0.160784 0 0 0 0 0.160784 0 0 0 0 0.164706 0 0 0 0.5 0"/>
<feBlend mode="normal" in2="BackgroundImageFix" result="effect1_dropShadow"/>
<feBlend mode="normal" in="SourceGraphic" in2="effect1_dropShadow" result="shape"/>
</filter>
</defs>
</svg>
